<svg xmlns="http://www.w3.org/2000/svg" viewBox="0 0 266.92 30.11">
    <defs>
        <style>.cls-1{stroke:#fff;stroke-linecap:round;stroke-linejoin:round;}.cls-2{fill:#f6bf2a;}</style>
    </defs>
    <title>header_logo</title>
    <g id="レイヤー_2" data-name="レイヤー 2">
        <g id="レイヤー_1-2" data-name="レイヤー 1">
            <path class="cls-1" d="M97.08,8.92c0,4-6.26,8.6-13.54,8.89a63.37,63.37,0,0,1-4.19,6.24C83,25.84,86.5,28,89.36,28c1.9,0,3-1.56,3.25-1.56a.21.21,0,0,1,.18.18,4.47,4.47,0,0,1-3.53,2.08c-2.92,0-6.61-2.23-10.33-4-2.41,2.91-5.12,5-8.42,5-2.42,0-4.39-1.37-4.39-3.84s2.62-4.22,5.22-4.22a17.71,17.71,0,0,1,7.33,2.19,59.85,59.85,0,0,0,3.93-5.9c-5.38-.06-8.32-2.6-8.32-5.46S77,8,79.06,8c1.51,0,2.34.47,2.34.6a.19.19,0,0,1-.18.21,5.83,5.83,0,0,0-2.08-.39C77.35,8.45,75,10,75,12.25c0,2.67,2.53,4.88,8,5,3.38-5.59,6.6-11.1,10.82-11.1C95.89,6.11,97.08,7.18,97.08,8.92ZM78.23,24.26a17.36,17.36,0,0,0-7-2.08c-2.06,0-4.4,1.45-4.4,3.59,0,1.92,1.93,3.19,3.77,3.19C73.53,29,76,27,78.23,24.26Zm5.67-7.07c6.45-.26,12.51-4.55,12.51-8.45a2.14,2.14,0,0,0-2.32-2C90.22,6.71,87.18,11.8,83.9,17.19Z" />
            <path class="cls-1" d="M100.46,18.2c0,2.26-2.88,5.2-4.94,5.2a1.88,1.88,0,0,1-2-2c0-2.28,2.86-5.07,5-5.07A1.77,1.77,0,0,1,100.46,18.2Zm-6.21,3.3a1.22,1.22,0,0,0,1.3,1.33c1.69,0,4.24-2.68,4.24-4.6A1.21,1.21,0,0,0,98.56,17C96.77,17,94.25,19.47,94.25,21.5Z" />
            <path class="cls-1" d="M104.8,23.63a2.09,2.09,0,0,1-2.28-2.08c0-2.44,3-5.14,4.94-5.14.83,0,1.37.44,1.37,1.11a1.44,1.44,0,0,1-.75,1.1.26.26,0,0,1-.26-.24c0-.1.44-.41.44-.86a.56.56,0,0,0-.62-.57c-1.8,0-4.4,2.45-4.4,4.63a1.48,1.48,0,0,0,1.67,1.51c2.52,0,4.65-2.32,5.28-3,0,0,.13-.16.26-.16a.23.23,0,0,1,.23.24.61.61,0,0,1-.13.26C109.93,21.09,107.59,23.63,104.8,23.63Z" />
            <path class="cls-1" d="M115,20.67c-1,1.17-3,3.07-4.32,3.07a1.26,1.26,0,0,1-1.3-1.35c0-2.55,3.69-6.06,6.53-6.06,1.22,0,1.76.65,1.76,1.3,0,.47-.31.83-.46.83a.14.14,0,0,1-.16-.16,4.51,4.51,0,0,0,.08-.52.87.87,0,0,0-1-.88c-2.86,0-6.06,3.35-6.06,5.49,0,.54.26.75.68.75,1.09,0,2.83-1.64,3.69-2.68.7-.83,1.2-1.64,1.43-1.64a.34.34,0,0,1,.34.34,4.34,4.34,0,0,0-.52,1.69c0,1,.44,1.41,1.12,1.41s1.71-.65,3.06-2.16c0,0,.13-.16.24-.16a.25.25,0,0,1,.26.24.61.61,0,0,1-.13.26c-1.46,1.58-2.6,2.36-3.56,2.36S115,21.92,115,20.67Z" />
            <path class="cls-1" d="M121.63,23.53a1.87,1.87,0,0,1-1.93-2c0-4.34,5.75-12.32,8.09-12.32a1,1,0,0,1,1.06,1.09c0,2-5,7.07-8.26,10.09a2,2,0,0,0-.24,1.14,1.29,1.29,0,0,0,1.41,1.43c1.66,0,3.79-2.44,4.16-2.83,0,0,.13-.16.23-.16a.24.24,0,0,1,.26.24.61.61,0,0,1-.13.26C125.92,20.83,123.52,23.53,121.63,23.53Zm-1-4c2.68-2.57,7.62-7.62,7.62-9.38a.42.42,0,0,0-.45-.45C126.12,9.72,121.91,15.68,120.64,19.55Z" />
            <polygon style="fill:#fff" points="21.53 25.26 24.44 28.17 27.35 25.26 21.53 25.26" />
            <rect style="fill:#fff" x="21.61" y="16.84" width="1.45" height="8.42" />
            <polygon style="fill:#fff" points="23.06 20.32 14.15 20.32 10.44 16.84 23.06 16.84 23.06 20.32" />
            <polygon style="fill:#fff" points="24.51 11.9 24.51 9.58 19.67 9.58 11.07 0 0 28.3 3.1 28.3 12.06 4.94 18.41 12 18.41 11.9 24.51 11.9" />
            <polygon style="fill:#fff" points="24.51 11.9 24.51 9.58 29.08 9.58 37.68 0 48.75 28.3 45.65 28.3 36.83 4.94 30.61 12 30.61 11.9 24.51 11.9" />
            <path class="cls-2" d="M56.19,5.15c-4,.62-4.51,1.12-5.14,5.13-.62-4-1.12-4.51-5.13-5.13,4-.63,4.51-1.13,5.13-5.14C51.68,4,52.18,4.52,56.19,5.15Z" />
            <path style="fill:#fff" d="M163.51,6.23h2.67V24h-2.67Z" />
            <path style="fill:#fff" d="M246.73,19.12a6.22,6.22,0,0,1-6.24,5,6.32,6.32,0,0,1-5.55-3.23c-.58-1.05-.78-1.59-.78-5.86s.2-4.79.78-5.84a6.41,6.41,0,0,1,11.79,2.35h-2.85a3.76,3.76,0,0,0-3.39-2.71,3.37,3.37,0,0,0-2.74,1.22c-.7.9-.89,1.36-.89,5s.19,4.12.89,5a3.46,3.46,0,0,0,2.74,1.38,3.33,3.33,0,0,0,3.39-2.34Z" />
            <polygon style="fill:#fff" points="222 20.9 221.93 20.9 218.18 20.9 218.11 20.9 215.52 24.02 218.18 24.02 221.93 24.02 224.59 24.02 222 20.9" />
            <polygon style="fill:#fff" points="179.42 20.9 176.83 24.02 186.64 24.02 186.64 20.9 179.42 20.9" />
            <polygon style="fill:#fff" points="213.75 6.23 213.75 23.78 216.44 20.64 216.44 6.23 213.75 6.23" />
            <polygon style="fill:#fff" points="226.67 6.23 224 6.23 224 20.64 226.67 23.75 226.67 6.23" />
            <polygon style="fill:#fff" points="186.64 8.89 186.64 6.23 174.63 6.23 174.63 23.75 177.3 20.64 177.3 16.45 185.31 16.45 185.31 13.79 177.3 13.79 177.3 8.89 186.64 8.89" />
            <polygon style="fill:#fff" points="260.46 6.23 258.22 6.23 251.76 24.02 254.6 24.02 259.31 9.78 259.36 9.78 261.93 17.79 258.41 17.79 257.68 20.01 262.7 20.01 264.07 24.02 266.92 24.02 260.46 6.23" />
            <polygon style="fill:#fff" points="142.17 6.23 142.28 6.23 139.5 6.23 139.5 24.02 142.17 24.02 142.17 6.23" />
            <polygon style="fill:#fff" points="152.35 6.23 147.21 17.76 143.5 9.65 143.5 15.91 146.2 21.35 148.44 21.35 152.15 12.9 151.95 12.9 151.95 24.02 154.62 24.02 154.62 6.23 152.35 6.23" />
            <path style="fill:#fff" d="M202.75,16.08a5.06,5.06,0,0,0,3.45-4.94,5,5,0,0,0-1.77-3.76,5.19,5.19,0,0,0-3.62-1.15H194.2V24h2.67V16.45H200L203.68,24h3.19Zm-1-2.29h-4.89V8.89h4.89V8.84a2.53,2.53,0,0,1,0,4.93Z" />
        </g>
    </g>
</svg>